<?xml version="1.0" encoding="UTF-8"?>
<svg id="a" xmlns="http://www.w3.org/2000/svg" width="28" height="28" viewBox="0 0 24 24"><path d="M20,4H4c-1.1046,0-2,.8954-2,2v12c0,1.1046,.8954,2,2,2H20c1.1046,0,2-.8954,2-2V6c0-1.1046-.8954-2-2-2ZM6.707,16.707c-.1953,.1953-.4512,.293-.707,.293s-.5117-.0977-.707-.293c-.3906-.3906-.3906-1.0234,0-1.4141l3.293-3.293-3.293-3.293c-.3906-.3906-.3906-1.0234,0-1.4141s1.0234-.3906,1.4141,0l4,4c.3906,.3906,.3906,1.0234,0,1.4141l-4,4Zm11.293,.293h-6c-.5522,0-1-.4473-1-1s.4478-1,1-1h6c.5522,0,1,.4473,1,1s-.4478,1-1,1Z"/></svg>